<?xml version='1.0' encoding='utf-8'?>
<svg xmlns="http://www.w3.org/2000/svg" id="2695e2ac-7858-4d2c-bacd-a241734e67a0" data-name="Capa 2" width="679.53902" height="521.82366" viewBox="0 0 679.53902 521.82366"><title>audiovisual - visual</title><path d="M506.23236,180.49757c-61.92619-.45949-122.11112,40.401-144.53451,98.12665-11.29216,29.07-13.49427,61.03683-10.835,92.1094,1.66675,19.475,5.33566,39.20217,14.90679,56.2447,11.17913,19.90574,29.69074,34.79346,49.58368,45.99532,29.95247,16.86646,64.24356,26.42089,98.61061,25.69093s68.70056-11.98964,95.78277-33.15993a153.87407,153.87407,0,0,0,53.12475-80.7948,163.69893,163.69893,0,0,0-4.20911-96.8034c-22.01247-61.65937-83.0066-107.37212-148.36573-111.1944" fill="none" stroke="#000" stroke-linecap="round" stroke-linejoin="round" stroke-width="14.17323"/><path d="M450.611,378.52545c-9.89595-5.672-22.334-7.041-32.97106-2.92341s-19.08282,13.88165-20.89165,25.14352,3.47608,23.533,13.286,29.35245c11.846,7.02732,26.87486,4.06889,40.15875.4288,7.6917-2.1077,16.14606-5.00975,19.81758-12.08963,2.31118-4.45671,2.22516-9.725,2.085-14.74341q-1.48062-53.02527-2.96123-106.05053l103.02182-12.2714" fill="none" stroke="#000" stroke-linecap="round" stroke-linejoin="round" stroke-width="14.17323"/><path d="M570.705,285.61235a525.74538,525.74538,0,0,0-.35174,72.55312" fill="none" stroke="#000" stroke-linecap="round" stroke-linejoin="round" stroke-width="14.17323"/><path d="M569.79347,360.776c-13.65732-3.0105-28.93587-1.76528-40.11466,6.6383s-16.55352,25.05784-9.53295,37.15317c4.43427,7.63955,12.87724,12.31409,21.545,14.01562s17.62577.77688,26.35711-.5607c8.53894-1.3081,17.92491-3.58165,22.714-10.77116,3.99382-5.99564,3.65594-13.77382,3.21542-20.96439q-4.55756-74.39256-2.64247-148.99373l-142.51058,17.6044-.09924,120.04265" fill="none" stroke="#000" stroke-linecap="round" stroke-linejoin="round" stroke-width="14.17323"/><path d="M318.29566,244.89251q-2.65982,92.42938-2.03328,184.91437-60.01234,4.01827-120.20268,4.071c-59.03738.05028-118.03538-2.76776-177.00552-5.58511" fill="none" stroke="#000" stroke-linecap="round" stroke-linejoin="round" stroke-width="14.17323"/><path d="M20.93125,429.4254c-7.662-53.25986-6.30459-107.35506-4.93048-161.14568q1.777-69.56031,3.55391-139.12062a1278.4373,1278.4373,0,0,1,157.925.528" fill="none" stroke="#000" stroke-linecap="round" stroke-linejoin="round" stroke-width="14.17323"/><path d="M175.36049,153.67081c-30.09873,2.34941-62.03889-2.1689-92.21453-1.22862L80.43382,269.3967l178.304.20041-2.80609-21.3232" fill="none" stroke="#000" stroke-linecap="round" stroke-linejoin="round" stroke-width="14.17323"/><path d="M77.75542,292.88532,81.3569,411.29751l167.70036-.41733c1.55178-.00386,3.2971-.089,4.34188-1.23636.91553-1.00543.98095-2.498.99671-3.85772l1.3396-115.58-177.58419-.48939" fill="none" stroke="#000" stroke-linecap="round" stroke-linejoin="round" stroke-width="14.17323"/><path d="M42.63665,145.30541a37.57,37.57,0,0,0-11.9491,1.72239c-3.312,1.09145-6.45129,6.4171-6.88957,9.87661-.4542,3.58518,3.38931,7.39811,6.54842,9.15306s6.8812,2.1359,10.49038,2.31941a121.11961,121.11961,0,0,0,13.471-.06537c4.24165-.257,9.11587-1.1398,11.1938-4.84654,2.43233-4.33895.51682-11.61253-4.0262-13.63829A42.327,42.327,0,0,0,46.835,145.95131" fill="none" stroke="#000" stroke-linecap="round" stroke-linejoin="round" stroke-width="14.17323"/><path d="M49.412,190.78564c-4.97689-1.12588-10.14464-2.25483-15.13407-1.18588s-9.75493,4.99445-10.0566,10.08817c-.26168,4.41851,2.92615,8.493,6.88131,10.48011s8.538,2.26132,12.96348,2.17678a91.7411,91.7411,0,0,0,13.46214-1.2541c2.85977-.48112,5.8429-1.17012,7.989-3.12051,2.97-2.69914,3.573-7.44887,1.88576-11.09018a13.54385,13.54385,0,0,0-9.22888-7.0832" fill="none" stroke="#000" stroke-linecap="round" stroke-linejoin="round" stroke-width="14.17323"/><path d="M49.412,230.32839c-4.97689-1.12588-10.14464-2.25483-15.13407-1.18588S24.523,234.137,24.22136,239.23068c-.26168,4.41851,2.92615,8.493,6.88131,10.48011s8.538,2.26132,12.96348,2.17678a91.7411,91.7411,0,0,0,13.46214-1.2541c2.85977-.48112,5.8429-1.17012,7.989-3.12051,2.97-2.69914,3.573-7.44887,1.88576-11.09018a13.54384,13.54384,0,0,0-9.22888-7.0832" fill="none" stroke="#000" stroke-linecap="round" stroke-linejoin="round" stroke-width="14.17323"/><path d="M49.412,269.87113c-4.97689-1.12588-10.14464-2.25483-15.13407-1.18588s-9.75493,4.99445-10.0566,10.08817c-.26168,4.41851,2.92615,8.493,6.88131,10.48011s8.538,2.26132,12.96348,2.17678a91.7411,91.7411,0,0,0,13.46214-1.2541c2.85977-.48112,5.8429-1.17012,7.989-3.12051,2.97-2.69914,3.573-7.44887,1.88576-11.09018a13.54385,13.54385,0,0,0-9.22888-7.0832" fill="none" stroke="#000" stroke-linecap="round" stroke-linejoin="round" stroke-width="14.17323"/><path d="M49.412,309.41388C44.43515,308.288,39.26739,307.15905,34.278,308.228s-9.75493,4.99445-10.0566,10.08817c-.26168,4.41851,2.92615,8.493,6.88131,10.48011s8.538,2.26132,12.96348,2.17678a91.7411,91.7411,0,0,0,13.46214-1.2541c2.85977-.48112,5.8429-1.17012,7.989-3.12051,2.97-2.69914,3.573-7.44887,1.88576-11.09018a13.54385,13.54385,0,0,0-9.22888-7.0832" fill="none" stroke="#000" stroke-linecap="round" stroke-linejoin="round" stroke-width="14.17323"/><path d="M49.412,348.95662c-4.97689-1.12588-10.14464-2.25483-15.13407-1.18588s-9.75493,4.99445-10.0566,10.08817c-.26168,4.41851,2.92615,8.493,6.88131,10.48011s8.538,2.26132,12.96348,2.17678a91.7411,91.7411,0,0,0,13.46214-1.2541c2.85977-.48112,5.8429-1.17012,7.989-3.12051,2.97-2.69914,3.573-7.44887,1.88576-11.09018a13.54384,13.54384,0,0,0-9.22888-7.0832" fill="none" stroke="#000" stroke-linecap="round" stroke-linejoin="round" stroke-width="14.17323"/><path d="M49.412,388.49937c-4.97689-1.12588-10.14464-2.25483-15.13407-1.18588s-9.75493,4.99445-10.0566,10.08817c-.26168,4.41851,2.92615,8.493,6.88131,10.48011s8.538,2.26132,12.96348,2.17678a91.7411,91.7411,0,0,0,13.46214-1.2541c2.85977-.48112,5.8429-1.17012,7.989-3.12051,2.97-2.69914,3.573-7.44887,1.88576-11.09018a13.54385,13.54385,0,0,0-9.22888-7.0832" fill="none" stroke="#000" stroke-linecap="round" stroke-linejoin="round" stroke-width="14.17323"/><path d="M293.38033,269.87113c-4.97689-1.12588-10.14464-2.25483-15.13407-1.18588s-9.75493,4.99445-10.0566,10.08817c-.26168,4.41851,2.92615,8.493,6.88131,10.48011s8.538,2.26132,12.96348,2.17678a91.7411,91.7411,0,0,0,13.46214-1.2541c2.85977-.48112,5.8429-1.17012,7.989-3.12051,2.97-2.69914,3.573-7.44887,1.88576-11.09018a13.54385,13.54385,0,0,0-9.22888-7.0832" fill="none" stroke="#000" stroke-linecap="round" stroke-linejoin="round" stroke-width="14.17323"/><path d="M293.38033,309.41388c-4.97689-1.12588-10.14464-2.25483-15.13407-1.18588s-9.75493,4.99445-10.0566,10.08817c-.26168,4.41851,2.92615,8.493,6.88131,10.48011s8.538,2.26132,12.96348,2.17678a91.7411,91.7411,0,0,0,13.46214-1.2541c2.85977-.48112,5.8429-1.17012,7.989-3.12051,2.97-2.69914,3.573-7.44887,1.88576-11.09018a13.54385,13.54385,0,0,0-9.22888-7.0832" fill="none" stroke="#000" stroke-linecap="round" stroke-linejoin="round" stroke-width="14.17323"/><path d="M293.38033,348.95662c-4.97689-1.12588-10.14464-2.25483-15.13407-1.18588s-9.75493,4.99445-10.0566,10.08817c-.26168,4.41851,2.92615,8.493,6.88131,10.48011s8.538,2.26132,12.96348,2.17678a91.7411,91.7411,0,0,0,13.46214-1.2541c2.85977-.48112,5.8429-1.17012,7.989-3.12051,2.97-2.69914,3.573-7.44887,1.88576-11.09018a13.54385,13.54385,0,0,0-9.22888-7.0832" fill="none" stroke="#000" stroke-linecap="round" stroke-linejoin="round" stroke-width="14.17323"/><path d="M293.38033,388.49937c-4.97689-1.12588-10.14464-2.25483-15.13407-1.18588s-9.75493,4.99445-10.0566,10.08817c-.26168,4.41851,2.92615,8.493,6.88131,10.48011s8.538,2.26132,12.96348,2.17678a91.7411,91.7411,0,0,0,13.46214-1.2541c2.85977-.48112,5.8429-1.17012,7.989-3.12051,2.97-2.69914,3.573-7.44887,1.88576-11.09018a13.54385,13.54385,0,0,0-9.22888-7.0832" fill="none" stroke="#000" stroke-linecap="round" stroke-linejoin="round" stroke-width="14.17323"/><path d="M173.59446,134.37309c-3.2958,5.85879-16.28188,12.3774-20.94221,13.28032,1.81527-1.31016,10.59177-13.1919,12.407-14.50206l-20.42987,9.0282,10.45475-8.22677a55.79461,55.79461,0,0,1-23.968,8.63l13.85673-8.33111-24.96349,10.66632,15.90219-13.38a140.157,140.157,0,0,1-30.48029,14.43891L120.713,133.32161l-20.67286,11.72466L110.77526,133.735a64.10131,64.10131,0,0,1-23.21348,13.0005l14.07135-15.46184L79.085,147.6999A37.65782,37.65782,0,0,0,91.0967,132.21921L72.27508,144.82672,74.524,139.935c-13.77877-3.01329-33.004-5.89275-45.77426.09563,7.05811.84879,14.28564,1.25043,27.42676,2.73526,4.19775.4743,8.46924,1.01937,12.30705,2.78481s7.23754,5.01327,8.082,9.1524c1.073,5.25937-2.27714,10.62472-6.7679,13.565s-9.927,3.97447-15.20578,4.94733l-31.41574,5.78975a5.29019,5.29019,0,0,0,6.90756-.06775l-.13483,4.05685c7.55532-2.67433,15.385-5.38056,23.37692-4.77755s16.24375,5.4309,18.24712,13.19115a57.67954,57.67954,0,0,0,1.55267-22.98717" fill="none" stroke="#000" stroke-linecap="round" stroke-linejoin="round" stroke-width="14.17323"/><path d="M72.71053,212.76041c-3.75933,4.55781-9.42732,7.21522-15.21054,8.42374s-11.74983,1.10138-17.65691.989l-18.89389-.35954c11.46815-3.34448,23.73088-1.3253,35.501.71613,6.58489,1.14209,13.68958,2.56116,18.15367,7.53479" fill="none" stroke="#000" stroke-linecap="round" stroke-linejoin="round" stroke-width="14.17323"/><path d="M73.77864,252.36141a88.07575,88.07575,0,0,1-50.13855,5.3113,3.60515,3.60515,0,0,0,2.71841,3.06821,11.074,11.074,0,0,0,4.34861.10386,152.60946,152.60946,0,0,1,31.10527-.045,13.30884,13.30884,0,0,1,5.92152,1.59581c1.73915,1.11166,2.96321,3.30328,2.31239,5.26208" fill="none" stroke="#000" stroke-linecap="round" stroke-linejoin="round" stroke-width="14.17323"/><path d="M75.5685,274.89588c10.39587,3.0583,21.39883,3.1578,32.23495,3.2338l153.40247,1.07587" fill="none" stroke="#000" stroke-linecap="round" stroke-linejoin="round" stroke-width="14.17323"/><path d="M26.79821,293.44964l-1.02909,9.1951a3.30429,3.30429,0,0,1,2.10458-3.54932,9.64414,9.64414,0,0,1,4.42258-.44953l28.96384,1.58086c1.97581.10784,4.17033.14539,5.66687-1.14915s1.2468-4.4-.71641-4.64749a9.5292,9.5292,0,0,0,1.71864,8.7949" fill="none" stroke="#000" stroke-linecap="round" stroke-linejoin="round" stroke-width="14.17323"/><path d="M23.44934,333.63631l2.58043,10.70107-1.30192-4.8731a377.767,377.767,0,0,0,38.00482,1.487c1.89753-.02138,3.96275-.1174,5.40593-1.3496,2.62874-2.24445,1.53277-6.46305.22209-9.66148A18.23413,18.23413,0,0,0,71.416,344.26754" fill="none" stroke="#000" stroke-linecap="round" stroke-linejoin="round" stroke-width="14.17323"/><path d="M24.56568,374.38212,26.292,385.52864c-2.32455-.83146-1.9789-4.60357.06354-5.9904s4.73569-1.12806,7.19266-.8869a125.031,125.031,0,0,0,23.6405.073c3.15842-.29032,6.4439-.686,9.42179.40584s5.48555,4.23664,4.66346,7.3a33.37881,33.37881,0,0,1-.4138-14.84482" fill="none" stroke="#000" stroke-linecap="round" stroke-linejoin="round" stroke-width="14.17323"/><path d="M27.35644,414.01135l2.40946,6.667-.09892-2.56583a67.85742,67.85742,0,0,0,43.36342-4.35534l-2.25262,4.6332L53.7635,420.69065,225.55674,424.398c28.28244.61034,56.65791,1.217,84.786-1.79653,1.07363-.3004,1.09267-1.98774.253-2.72118a4.72993,4.72993,0,0,0-3.17591-.77378l-124.33649-.13182" fill="none" stroke="#000" stroke-linecap="round" stroke-linejoin="round" stroke-width="14.17323"/><path d="M268.39451,416.27329l-3.92782-11.71443" fill="none" stroke="#000" stroke-linecap="round" stroke-linejoin="round" stroke-width="14.17323"/><path d="M265.13275,371.03306l-2.36062,14.15187,1.3335-11.15353c1.14206,3.31035,5.45248,3.97635,8.95271,4.08176l33.93835,1.022" fill="none" stroke="#000" stroke-linecap="round" stroke-linejoin="round" stroke-width="14.17323"/><path d="M264.57459,350.38115l-.60271-19.36351.39215,12.23056a113.70018,113.70018,0,0,1,42.09313-3.09483" fill="none" stroke="#000" stroke-linecap="round" stroke-linejoin="round" stroke-width="14.17323"/><path d="M267.92355,290.658l-2.69318,17.8294-1.08943-14.3449a1.9911,1.9911,0,0,0,.97828,2.32275,5.8075,5.8075,0,0,0,2.656.5982l41.44582,2.61338" fill="none" stroke="#000" stroke-linecap="round" stroke-linejoin="round" stroke-width="14.17323"/><path d="M267.46787,267.21325l-.365-20.55013c1.6329,2.63679,5.27978,2.94321,8.38119,2.96092l34.84606.199-.36131,13.2488a32.37886,32.37886,0,0,0-41.01561-.5497,1.43844,1.43844,0,0,0-.68173,1.004c-.00554.83535,1.18634.98988,2.01089.85583l34.33436-5.58166a3.7749,3.7749,0,0,0,2.60144-1.17135c.80913-1.13426.047-2.83592-1.17436-3.50632a7.49213,7.49213,0,0,0-4.08849-.519l-34.577,2.10591" fill="none" stroke="#000" stroke-linecap="round" stroke-linejoin="round" stroke-width="14.17323"/><path d="M372.86706,243.59423l-197.04129-2.50781" fill="none" stroke="#000" stroke-linecap="round" stroke-linejoin="round" stroke-width="14.17323"/><path d="M175.36049,238.19095l.08264-210.42618" fill="none" stroke="#000" stroke-linecap="round" stroke-linejoin="round" stroke-width="14.17323"/><path d="M174.70916,27.08413q160.74372-2.13341,321.49422,1.57378" fill="none" stroke="#000" stroke-linecap="round" stroke-linejoin="round" stroke-width="14.17323"/><path d="M496.74967,29.46417l-3.39939,147.88566" fill="none" stroke="#000" stroke-linecap="round" stroke-linejoin="round" stroke-width="14.17323"/><path d="M181.41264,42.993q156.84574.64464,313.66454,4.011" fill="none" stroke="#000" stroke-linecap="round" stroke-linejoin="round" stroke-width="14.17323"/><path d="M477.3738,34.3669a816.20282,816.20282,0,0,1-2.14561,147.2973" fill="none" stroke="#000" stroke-linecap="round" stroke-linejoin="round" stroke-width="14.17323"/><path d="M484.6675,38.37937a729.19913,729.19913,0,0,0,5.11161,135.36779" fill="none" stroke="#000" stroke-linecap="round" stroke-linejoin="round" stroke-width="14.17323"/><path d="M484.54259,35.67671q-152.06879-3.7641-304.15118,3.18435" fill="none" stroke="#000" stroke-linecap="round" stroke-linejoin="round" stroke-width="14.17323"/><path d="M190.54237,44.51346,186.603,235.9503" fill="none" stroke="#000" stroke-linecap="round" stroke-linejoin="round" stroke-width="14.17323"/><path d="M183.583,42.26465a153.7015,153.7015,0,0,0-2.95282,38.50829" fill="none" stroke="#000" stroke-linecap="round" stroke-linejoin="round" stroke-width="14.17323"/><path d="M182.51375,228.875l206.52184,3.18514" fill="none" stroke="#000" stroke-linecap="round" stroke-linejoin="round" stroke-width="14.17323"/><path d="M234.99111,203.28194l187.54351-.609" fill="none" stroke="#000" stroke-linecap="round" stroke-linejoin="round" stroke-width="14.17323"/><path d="M233.44078,204.29516a482.24519,482.24519,0,0,0,58.91014-56.64175" fill="none" stroke="#000" stroke-linecap="round" stroke-linejoin="round" stroke-width="14.17323"/><path d="M292.4696,147.79685a399.60188,399.60188,0,0,0,44.72692,17.6461" fill="none" stroke="#000" stroke-linecap="round" stroke-linejoin="round" stroke-width="14.17323"/><path d="M335.3121,166.46792l40.4472-59.1922" fill="none" stroke="#000" stroke-linecap="round" stroke-linejoin="round" stroke-width="14.17323"/><path d="M374.3431,107.96558A360.9763,360.9763,0,0,0,431.1257,193.901" fill="none" stroke="#000" stroke-linecap="round" stroke-linejoin="round" stroke-width="14.17323"/><path d="M257.785,198.43459a323.23577,323.23577,0,0,0,43.28938-37.53105l-28.04995,33.20739,34.92582-28.53847-24.89271,29.15531,32.72527-27.59192-25.98572,28.74476,35.1166-26.59763L298.1154,198.98862,332.29658,171.637,312.727,194.898a381.35294,381.35294,0,0,0,63.94-66.36828,389.21215,389.21215,0,0,1-50.9913,66.36287l52.2538-46.75508-34.252,45.5875a286.30338,286.30338,0,0,0,38.33941-38.47115,143.25354,143.25354,0,0,1-28.22023,38.34243l25.61714-24.46751a89.68041,89.68041,0,0,1-16.42336,24.08944l54.60935,2.89041a448.81378,448.81378,0,0,1-44.65959-64.28678c-.91556,11.66181,2.81569,23.31112,8.543,33.51085s13.3893,19.15759,20.99918,28.04161l-25.19325-13.82982,15.20774,14.79765a63.65527,63.65527,0,0,0-24.68476-3.395" fill="none" stroke="#000" stroke-linecap="round" stroke-linejoin="round" stroke-width="14.17323"/><path d="M354.4384,194.09625H319.83246" fill="none" stroke="#000" stroke-linecap="round" stroke-linejoin="round" stroke-width="14.17323"/><path d="M300.80448,155.50646l-24.56539,16.177" fill="none" stroke="#000" stroke-linecap="round" stroke-linejoin="round" stroke-width="14.17323"/><path d="M268.83438,70.93948c-9.73561-2.4451-20.59262,2.63649-25.774,11.23378s-4.8544,19.95946-.039,28.767c3.83887,7.02147,10.8793,12.72753,18.87411,13.07539,9.05559.394,17.15656-6.00468,22.21355-13.527,3.43595-5.111,5.93564-11.08061,5.78316-17.23731-.255-10.29566-8.81175-19.702-19.01687-21.08811s-20.88147,5.27907-24.27269,15.00353.73135,21.48161,9.36348,27.09873c5.06583,3.29645,11.82672,4.48052,17.22834,1.76912,5.55115-2.78646,8.60277-9.03939,9.533-15.18058.78705-5.19577.26069-10.769-2.51809-15.22924-4.76364-7.64618-16.24852-10.04-23.67019-4.93361-6.46622,4.449-8.96591,13.949-5.233,20.85338s13.36855,9.96932,20.25746,6.20791,9.43978-13.85791,4.91083-20.26837-15.22719-7.22331-20.45712-1.37069-2.95828,16.67267,4.29629,19.66878a11.31454,11.31454,0,0,0,12.88833-3.1173c2.93744-3.72609,2.65291-9.73069-.88815-12.88874s-9.874-2.54077-12.44932,1.44421-.18655,10.29047,4.45983,11.25146,9.40328-4.36961,7.63862-8.774a5.96969,5.96969,0,0,0-7.3862-3.37313c-2.79147,1.11555-4.07978,5.071-2.25817,7.46236s6.27674,1.96188,7.38429-.83277c.48994-.37264-.09009-1.3339-.64816-1.07416" fill="none" stroke="#000" stroke-linecap="round" stroke-linejoin="round" stroke-width="14.17323"/></svg>